#N canvas 898 323 450 300 10;
#X obj 86 151 dac~;
#X obj 86 118 osc~ 440;
#X obj 83 86 mtof;
#X obj 146 141 table sticky 16;
#X obj 172 86 tabread sticky;
#X floatatom 158 58 5 0 0 0 - - -, f 5;
#X floatatom 171 119 5 0 0 0 - - -, f 5;
#X obj 83 42 + 50;
#X floatatom 32 64 5 0 0 0 - - -, f 5;
#X floatatom 33 97 5 0 0 0 - - -, f 5;
#X msg 186 168 \; sticky 0 12 3 5 7 10 11 4 3 8 2 9;
#X obj 323 20 f;
#X obj 324 62 + 1;
#X obj 185 5 bng 15 250 50 0 empty empty empty 17 7 0 10 -262144 -1
-1;
#X floatatom 291 81 5 0 0 0 - - -, f 5;
#X obj 291 100 % 16;
#X floatatom 311 131 5 0 0 0 - - -, f 5;
#X obj 243 11 metro 100;
#X msg 180 30 stop;
#X connect 1 0 0 0;
#X connect 1 0 0 1;
#X connect 2 0 1 0;
#X connect 2 0 9 0;
#X connect 4 0 6 0;
#X connect 5 0 4 0;
#X connect 6 0 7 0;
#X connect 7 0 2 0;
#X connect 7 0 8 0;
#X connect 11 0 12 0;
#X connect 11 0 14 0;
#X connect 12 0 11 1;
#X connect 13 0 17 0;
#X connect 14 0 15 0;
#X connect 15 0 16 0;
#X connect 16 0 4 0;
#X connect 17 0 11 0;
#X connect 18 0 17 0;
